# xmcd
#
# Track frame offsets:
#	150
#	12312
#	29076
#	44603
#	60326
#	77689
#	91555
#	106660
#	121988
#	137519
#
# Disc length: 2032 seconds
#
# Revision: 1
# Processed by: cddbd v1.5.2PL0 Copyright (c) Steve Scherf et al.
# Submitted via: audiograbber 1.83.01
#
DISCID=7207ee0a
DTITLE=Scotty Emerick - Love Me Like My Dog
DYEAR=2007
DGENRE=Country
TTITLE0=Love Me Like My Dog
TTITLE1=As Long As You're Lookin' Back
TTITLE2=That's Sweet
TTITLE3=Brother From Another Mother
TTITLE4=All I Need Is a Heart
TTITLE5=Bad Day Fishin'
TTITLE6=How'd You Get So Far
TTITLE7=I Shall Return
TTITLE8=You'd Think
TTITLE9=Able To Fly
EXTD=
EXTT0=
EXTT1=
EXTT2=
EXTT3=
EXTT4=
EXTT5=
EXTT6=
EXTT7=
EXTT8=
EXTT9=
PLAYORDER=
